<?xml version="1.0" encoding="UTF-8"?>
<svg enable-background="new 0 0 424.264 424.264" version="1.1" viewBox="0 0 424.26 424.26" xml:space="preserve" xmlns="http://www.w3.org/2000/svg">
	<path d="m212.13 32.132c-80.133 0-155.47 31.205-212.13 87.868l28.284 28.284c49.107-49.107 114.4-76.152 183.85-76.152s134.74 27.045 183.85 76.152l28.284-28.284c-56.663-56.663-132-87.868-212.13-87.868z" fill="#2488FF"/>
	<path d="m56.568 176.57 28.284 28.284c33.998-33.998 79.2-52.721 127.28-52.721s93.282 18.723 127.28 52.721l28.284-28.284c-41.553-41.553-96.799-64.437-155.56-64.437s-114.01 22.885-155.56 64.437z" fill="#2488FF"/>
	<path d="m113.14 233.14 28.284 28.284c38.99-38.989 102.43-38.989 141.42 0l28.284-28.284c-54.586-54.586-143.4-54.586-197.99 0z" fill="#2488FF"/>
	<path d="m152.13 332.13c0 33.084 26.916 60 60 60v-120c-33.084 0-60 26.916-60 60z" fill="#2488FF"/>
	<path d="m212.13 272.13v120c33.084 0 60-26.916 60-60s-26.916-60-60-60z" fill="#005ECE"/>
</svg>
